<?xml version="1.0" standalone="no"?>
<!DOCTYPE svg PUBLIC "-//W3C//DTD SVG 20010904//EN"
 "http://www.w3.org/TR/2001/REC-SVG-20010904/DTD/svg10.dtd">
<svg version="1.0" xmlns="http://www.w3.org/2000/svg"
 width="1536.000000pt" height="1024.000000pt" viewBox="0 0 1536.000000 1024.000000"
 preserveAspectRatio="xMidYMid meet">

<g transform="translate(0.000000,1024.000000) scale(0.100000,-0.100000)"
fill="#000000" stroke="none">
<path d="M10675 8074 c-172 -43 -269 -98 -372 -208 -202 -216 -217 -495 -38
-694 65 -72 231 -194 329 -242 197 -97 430 -90 553 15 45 38 83 106 83 148 0
20 11 35 45 59 54 40 79 88 72 136 -9 55 -49 123 -90 156 l-39 31 -269 0
c-148 0 -256 3 -241 8 15 4 151 32 302 63 302 60 396 82 423 96 16 8 -5 32
-148 171 -172 167 -236 214 -327 242 -52 16 -244 29 -283 19z"/>
<path d="M10270 6937 c-151 -35 -296 -170 -501 -467 -187 -270 -316 -531 -376
-758 -21 -79 -26 -121 -26 -227 -1 -117 2 -138 27 -210 45 -131 112 -216 217
-278 46 -27 218 -87 249 -87 10 0 21 -4 24 -8 9 -15 -361 -22 -1139 -22 -660
0 -754 -2 -765 -15 -7 -8 -15 -46 -17 -83 -4 -53 0 -79 17 -125 12 -32 28 -61
36 -64 11 -4 220 23 339 44 25 5 18 -3 -41 -45 -169 -120 -336 -363 -412 -602
-28 -89 -56 -242 -64 -350 l-3 -45 35 3 c74 6 314 33 316 35 1 1 14 34 29 72
97 247 257 404 475 469 83 25 343 22 434 -4 71 -20 104 -37 51 -27 -328 67
-581 -5 -756 -216 -59 -69 -121 -192 -144 -282 -32 -123 -28 -294 10 -421 6
-19 2 -22 -42 -27 -264 -33 -748 -90 -913 -108 -113 -12 -209 -26 -214 -30 -6
-5 2 -9 18 -9 15 0 125 -4 244 -10 119 -5 394 -14 610 -20 l393 -11 35 -38
c18 -21 50 -49 69 -62 19 -13 35 -27 35 -30 0 -3 -24 -11 -52 -17 -105 -23
-856 -157 -941 -168 -138 -19 3 -24 620 -24 703 0 909 7 1028 35 91 21 233 89
314 150 118 90 241 276 273 413 l12 54 90 -7 c50 -4 183 -11 296 -15 676 -24
954 36 1279 277 15 12 17 7 13 -51 -6 -96 2 -103 68 -59 134 88 262 212 390
376 38 50 55 65 61 55 13 -20 10 -120 -5 -195 -31 -147 -37 -229 -26 -333 20
-183 74 -309 179 -421 58 -60 64 -70 46 -74 -88 -18 -366 -66 -590 -100 -208
-32 -225 -37 -165 -46 78 -12 905 -32 1130 -26 180 4 227 8 288 26 288 84 482
280 558 561 26 98 24 273 -4 373 -56 199 -184 359 -368 463 -138 77 -304 111
-492 101 -101 -5 -105 -5 -78 10 56 30 192 74 291 94 72 15 140 21 247 21
l148 1 -23 40 c-29 51 -138 153 -211 196 -154 92 -415 126 -580 76 -65 -20
-63 -20 -82 23 -30 69 -261 738 -283 817 l-11 40 78 -82 c42 -45 91 -87 107
-93 29 -11 32 -9 72 35 53 58 96 146 123 250 23 90 36 249 26 317 l-7 46 -45
-14 c-48 -14 -151 -56 -317 -129 l-97 -43 -6 27 c-16 71 -27 108 -40 133 l-14
27 -143 -6 c-226 -9 -405 28 -582 120 -96 50 -254 200 -303 287 -57 103 -75
178 -71 303 l4 111 -75 38 c-41 21 -97 44 -125 52 -74 22 -191 28 -255 13z
m58 -761 c6 -13 55 -70 109 -127 125 -131 237 -205 372 -248 122 -39 191 -49
404 -61 215 -12 252 -23 327 -100 66 -68 113 -145 145 -237 109 -315 77 -735
-84 -1087 -100 -220 -325 -458 -523 -556 -57 -28 -58 -28 -58 -7 0 40 -47 123
-90 159 -48 42 -156 100 -217 119 -24 7 -43 14 -43 15 0 2 21 27 48 54 104
112 308 431 425 665 75 151 107 251 114 355 11 177 -63 269 -247 308 -30 7
-211 34 -403 62 -336 48 -397 58 -397 66 0 2 15 32 34 66 19 35 47 99 62 143
24 68 28 96 28 190 0 99 -10 177 -29 228 -11 26 10 20 23 -7z m402 -1159 c0
-40 -29 -135 -71 -235 -91 -212 -293 -590 -409 -762 -30 -45 -38 -67 -43 -121
-9 -97 -21 -117 -81 -133 -28 -8 -72 -17 -97 -21 l-46 -6 -22 87 c-32 126 -74
228 -131 317 -90 140 -186 227 -344 309 -50 26 -86 48 -79 48 25 0 225 -75
331 -126 63 -30 124 -54 137 -54 31 0 132 69 186 127 93 99 187 264 210 368
14 65 5 135 -22 164 -12 12 -19 24 -17 26 2 3 89 9 194 15 104 6 194 13 199
15 6 2 31 4 58 4 43 1 47 -1 47 -22z m2072 -1194 c127 -60 206 -164 227 -300
19 -124 -28 -274 -110 -348 -69 -62 -139 -89 -249 -93 -108 -5 -190 17 -265
68 -117 81 -180 257 -145 406 8 30 16 57 20 59 3 2 66 -65 138 -150 163 -191
205 -217 303 -184 70 24 109 80 109 157 0 63 -18 87 -199 267 -78 77 -141 144
-141 148 0 5 55 7 123 5 112 -3 127 -6 189 -35z m-3627 -26 c167 -78 263 -264
222 -430 -29 -119 -107 -215 -217 -266 -49 -23 -67 -26 -170 -26 -96 0 -124 4
-172 23 -80 32 -150 99 -190 180 -31 62 -33 74 -33 167 0 89 3 107 28 160 29
63 98 142 155 177 60 37 112 48 217 45 86 -2 109 -6 160 -30z"/>
<path d="M8935 3605 c-120 -65 -142 -217 -43 -300 116 -98 298 -10 298 144 0
42 -40 111 -80 137 -49 33 -133 42 -175 19z"/>
<path d="M7482 6193 c-12 -81 -8 -153 7 -153 3 0 62 -7 131 -15 214 -25 442
-45 513 -45 108 0 78 -16 -56 -29 -67 -6 -142 -14 -167 -16 -25 -3 -162 -14
-305 -25 -672 -53 -725 -58 -725 -70 0 -9 225 -36 480 -56 113 -9 208 -20 211
-23 4 -3 23 -161 43 -351 21 -190 39 -360 42 -377 l5 -33 720 0 c567 0 721 3
724 13 4 12 34 450 60 872 8 132 17 275 20 318 l5 77 -848 0 -848 0 -12 -87z"/>
<path d="M7265 5555 c-5 -2 -111 -11 -235 -20 -240 -17 -522 -44 -528 -50 -2
-2 25 -6 60 -9 65 -7 735 -36 814 -36 l44 0 0 60 0 60 -72 -1 c-40 0 -77 -2
-83 -4z"/>
<path d="M910 4115 l0 -775 170 0 170 0 0 506 0 506 24 -29 c22 -26 449 -668
592 -890 l59 -93 183 0 182 0 0 775 0 775 -170 0 -170 0 -2 -507 c-3 -504 -3
-508 -22 -473 -17 31 -221 344 -526 808 l-113 172 -189 0 -188 0 0 -775z"/>
<path d="M2580 4115 l0 -777 333 4 c302 4 339 6 412 26 389 106 609 432 568
842 -34 335 -234 569 -558 652 -71 18 -119 21 -417 25 l-338 5 0 -777z m613
470 c212 -55 347 -235 350 -465 1 -189 -61 -328 -185 -413 -87 -60 -154 -78
-305 -84 l-133 -6 0 492 0 491 108 0 c63 0 131 -6 165 -15z"/>
<path d="M4512 4838 c-11 -29 -149 -376 -306 -770 -157 -395 -286 -720 -286
-723 0 -3 87 -5 194 -5 l194 0 36 93 c19 50 46 121 59 157 l24 65 279 0 278 0
28 -75 c16 -41 42 -112 60 -157 l31 -83 193 0 194 0 -19 48 c-57 141 -270 662
-431 1055 l-184 447 -162 0 -163 0 -19 -52z m198 -420 c0 -10 120 -340 160
-440 l19 -48 -191 0 c-177 0 -190 1 -183 18 15 39 175 485 175 489 0 2 5 1 10
-2 6 -3 10 -11 10 -17z"/>
<path d="M5857 4884 c-4 -4 -7 -242 -7 -530 0 -460 -2 -528 -17 -573 -28 -89
-119 -161 -223 -177 -23 -4 -44 -13 -47 -20 -5 -14 9 -111 28 -196 l11 -48
109 0 c124 0 194 12 262 47 100 50 165 133 204 258 17 55 18 106 18 650 l0
590 -166 3 c-91 1 -168 -1 -172 -4z"/>
<path d="M6450 4115 l0 -775 465 0 465 0 0 140 0 140 -295 0 -295 0 0 185 0
185 280 0 280 0 0 145 0 145 -280 0 -280 0 0 170 0 170 279 0 279 0 0 135 -1
135 -449 0 -448 0 0 -775z"/>
</g>
</svg>
